<svg width="128" height="128" viewBox="0 0 128 128" fill="none" xmlns="http://www.w3.org/2000/svg" role="img" aria-label="Learn icon">
  <title>Learn icon</title>
  <rect x="8" y="8" width="112" height="112" rx="30" fill="#F8FAFC"/>
  <rect x="8" y="8" width="112" height="112" rx="30" stroke="#081B44" stroke-width="4"/>
  <circle cx="100" cy="28" r="10" fill="#F5A623"/>
  <circle cx="28" cy="100" r="8" fill="#14B8A6" opacity="0.25"/>
  
  <path d="M36 40C36 35.5817 39.5817 32 44 32H90C94.4183 32 98 35.5817 98 40V88C98 92.4183 94.4183 96 90 96H44C39.5817 96 36 92.4183 36 88V40Z" fill="#14B8A6"/>
  <path d="M36 42C36 36.4772 40.4772 32 46 32H54V96H46C40.4772 96 36 91.5228 36 86V42Z" fill="#081B44"/>
  <path d="M62 48H86M62 62H86M62 76H78" stroke="white" stroke-width="5" stroke-linecap="round"/>
  <circle cx="47" cy="44" r="4" fill="#FF6A3D"/>

</svg>
