<svg width="128" height="128" viewBox="0 0 128 128" fill="none" xmlns="http://www.w3.org/2000/svg" role="img" aria-label="Progress analytics icon">
  <title>Progress analytics icon</title>
  <rect x="8" y="8" width="112" height="112" rx="32" fill="#F8FAFC"/>
  <rect x="8" y="8" width="112" height="112" rx="32" stroke="#081B44" stroke-width="4"/>
  <circle cx="102" cy="28" r="9" fill="#F5A623" opacity="0.95"/>
  <circle cx="28" cy="102" r="7" fill="#14B8A6" opacity="0.25"/>
  
  <rect x="34" y="82" width="12" height="18" rx="6" fill="#14B8A6"/>
  <rect x="54" y="68" width="12" height="32" rx="6" fill="#F5A623"/>
  <rect x="74" y="52" width="12" height="48" rx="6" fill="#FF6A3D"/>
  <path d="M32 62C43 61 50 54 58 46C64 52 72 55 84 43" stroke="#081B44" stroke-width="6" stroke-linecap="round" stroke-linejoin="round"/>
  <path d="M78 41H87V50" stroke="#081B44" stroke-width="6" stroke-linecap="round" stroke-linejoin="round"/>
  <circle cx="32" cy="62" r="5" fill="#14B8A6" stroke="#081B44" stroke-width="3"/>
  <circle cx="58" cy="46" r="5" fill="#F5A623" stroke="#081B44" stroke-width="3"/>
  <circle cx="84" cy="43" r="5" fill="#FF6A3D" stroke="#081B44" stroke-width="3"/>

</svg>
